# AST/ASF file generated using VICON BodyLanguage
# -----------------------------------------------
:version 1.10
:name VICON
:units
  mass 1.0
  length 0.45
  angle deg
:documentation
   .ast/.asf automatically generated from VICON data using
   VICON BodyBuilder and BodyLanguage model FoxedUp or BRILLIANT.MOD
:root
   order TX TY TZ RX RY RZ
   axis XYZ
   position 0 0 0  
   orientation 0 0 0 
:bonedata
  begin
     id 1 
     name lhipjoint
     direction 0.523584 -0.783993 0.333487 
     length 2.44404 
     axis 0 0 0  XYZ
  end
  begin
     id 2 
     name lfemur
     direction 0.34202 -0.939693 0  
     length 7.29523  
     axis 0 0 20  XYZ
    dof rx ry rz
    limits (-160.0 20.0)
           (-70.0 70.0)
           (-60.0 70.0)
  end
  begin
     id 3 
     name ltibia
     direction 0.34215 -0.939645 0   
     length 7.81194   
     axis 0 0 20   XYZ
    dof rx
    limits (-10.0 170.0)
  end
  begin
     id 4 
     name lfoot
     direction 0.0941847 -0.25877 0.961336   
     length 2.41437   
     axis -90 7.62852e-016 20   XYZ
    dof rx rz
    limits (-45.0 90.0)
           (-70.0 20.0)
  end
  begin
     id 5 
     name ltoes
     direction 1.53526e-011 -4.21768e-011 1   
     length 1.2048   
     axis -90 7.62852e-016 20   XYZ
    dof rx
    limits (-90.0 20.0)
  end
  begin
     id 6 
     name rhipjoint
     direction -0.46599 -0.814191 0.346332   
     length 2.35339  
     axis 0 0 0  XYZ 
  end
  begin
     id 7 
     name rfemur
     direction -0.34202 -0.939693 0   
     length 7.34966   
     axis 0 0 -20   XYZ
    dof rx ry rz
    limits (-160.0 20.0)
           (-70.0 70.0)
           (-70.0 60.0)
  end
  begin
     id 8 
     name rtibia
     direction -0.34202 -0.939693 0   
     length 7.89934   
     axis 0 0 -20   XYZ
    dof rx
    limits (-10.0 170.0)
 end
 begin
     id 9 
     name rfoot
     direction -0.0975468 -0.268008 0.958466   
     length 2.27725  
     axis -90 -7.62852e-016 -20   XYZ
    dof rx rz
    limits (-45.0 90.0)
           (-20.0 70.0)
  end
  begin
     id 10 
     name rtoes
     direction -1.53563e-011 -4.22022e-011 1   
     length 1.13683   
     axis -90 -7.62852e-016 -20   XYZ
    dof rx
    limits (-90.0 20.0)
  end
  begin
     id 11 
     name lowerback
     direction -0.00456414 0.999242 -0.0386661   
     length 2.16968   
     axis 0 0 0   XYZ
    dof rx ry rz
    limits (-20.0 45.0)
           (-30.0 30.0)
           (-30.0 30.0)
  end
  begin
     id 12 
     name upperback
     direction 0.0297078 0.998988 0.0337799   
     length 2.15674   
     axis 0 0 0   XYZ
    dof rx ry rz
    limits (-20.0 45.0)
           (-30.0 30.0)
           (-30.0 30.0)
  end
  begin
     id 13 
     name thorax
     direction 0.0309305 0.998202 0.0513506   
     length 2.16319   
     axis 0 0 0   XYZ
    dof rx ry rz
    limits (-20.0 45.0)
           (-30.0 30.0)
           (-30.0 30.0)
  end
  begin
     id 14 
     name lowerneck
     direction -0.103039 0.983474 0.148872   
     length 1.64318   
     axis 0 0 0   XYZ
    dof rx ry rz
    limits (-20.0 45.0)
           (-30.0 30.0)
           (-30.0 30.0)
  end
  begin
     id 15 
     name upperneck
     direction 0.128124 0.971079 -0.201469   
     length 1.68242   
     axis 0 0 0   XYZ
    dof rx ry rz
    limits (-20.0 45.0)
           (-30.0 30.0)
           (-30.0 30.0)
  end
  begin
     id 16
     name head
     direction 0.0496365 0.994919 -0.0875941  
     length 1.70108  
     axis 0 0 0   XYZ
    dof rx ry rz
    limits (-20.0 45.0)
           (-30.0 30.0)
           (-30.0 30.0)
  end
  begin
     id 17 
     name lclavicle
     direction 0.887148 0.430222 -0.166967  
     length 3.25763  
     axis 0 0 0   XYZ
    dof ry rz
    limits (-20.0 10.0)
           (0.0 20.0)
  end
  begin
     id 18 
     name lhumerus
     direction 1 -4.48962e-011 1.92156e-027   
     length 5.10755   
     axis 180 -30 -90   XYZ
    dof rx ry rz
    limits (-60.0 90.0)
           (-90.0 90.0)
           (-90.0 90.0)
  end
  begin
     id 19
     name lradius
     direction 1 -4.48958e-011 7.10963e-027   
     length 3.36253   
     axis 180 -30 -90   XYZ
    dof rx
    limits (-10.0 170.0)
  end
  begin
     id 20
     name lwrist
     direction 1 -4.48946e-011 1.82396e-026   
     length 1.68127   
     axis -1.15222e-014 90 90   XYZ
    dof ry
    limits (-180.0 0.0)
 end
  begin
     id 21 
     name lhand
     direction 1 -4.48919e-011 3.64759e-026   
     length 0.619088   
     axis -2.32787e-014 90 90   XYZ
    dof rx rz
    limits (-90.0 90.0)
           (-45.0 45.0)
  end
  begin
     id 22 
     name lfingers
     direction 1 -4.49012e-011 7.29744e-026   
     length 0.499125   
     axis -4.6558e-014 90 90   XYZ
    dof rx
    limits (0.0 90.0)
  end
  begin
     id 23
     name lthumb
     direction 0.707107 -6.35028e-011 0.707107   
     length 0.716646   
     axis -90 45 3.78391e-014   XYZ
    dof rx rz
    limits (-45.0 45.0)
           (-45.0 45.0)
  end
  begin
     id 24 
     name rclavicle
     direction -0.82886 0.533198 -0.169384   
     length 3.20647  
     axis 0 0 0   XYZ 
    dof ry rz
    limits (-10.0 20.0)
           (-20.0 0.0)
  end
  begin
     id 25 
     name rhumerus
     direction -1 -4.48973e-011 3.06863e-027  
     length 5.27387   
     axis 180 30 90   XYZ
    dof rx ry rz
    limits (-90.0 60.0)
           (-90.0 90.0)
           (-90.0 90.0)
  end
  begin
     id 26 
     name rradius
     direction -1 -4.48988e-011 9.4797e-027   
     length 3.40144   
     axis 180 30 90   XYZ
    dof rx
    limits (-10.0 170.0)
  end
  begin
     id 27 
     name rwrist
     direction -1 -4.48897e-011 1.82366e-026   
     length 1.70072   
     axis -1.15222e-014 -90 -90   XYZ
    dof ry
    limits (-180.0 0.0)
  end
  begin
     id 28
     name rhand
     direction -1 -4.48965e-011 3.64815e-026   
     length 0.742821   
     axis -2.32787e-014 -90 -90   XYZ
    dof rx rz
    limits (-90.0 90.0)
           (-45.0 45.0)
  end
  begin
     id 29
     name rfingers
     direction -1 -4.49016e-011 7.29754e-026   
     length 0.598881   
     axis -4.6558e-014 -90 -90   XYZ
    dof rx
    limits (0.0 90.0)
  end
  begin
     id 30
     name rthumb
     direction -0.707107 -6.3488e-011 0.707107   
     length 0.859877   
     axis -90 -45 -3.78391e-014   XYZ
    dof rx rz
    limits (-45.0 45.0)
           (-45.0 45.0)
  end
:hierarchy
  begin
    root lhipjoint rhipjoint lowerback
    lhipjoint lfemur
    lfemur ltibia
    ltibia lfoot
    lfoot ltoes
    rhipjoint rfemur
    rfemur rtibia
    rtibia rfoot
    rfoot rtoes
    lowerback upperback
    upperback thorax
    thorax lowerneck lclavicle rclavicle
    lowerneck upperneck
    upperneck head
    lclavicle lhumerus
    lhumerus lradius
    lradius lwrist
    lwrist lhand lthumb
    lhand lfingers
    rclavicle rhumerus
    rhumerus rradius
    rradius rwrist
    rwrist rhand rthumb
    rhand rfingers
  end

#!OML:ASF F:\Work\Patient Classification 1\justin\Session 1\justin.ASF
:FULLY-SPECIFIED
:DEGREES
338
root 0.455404 18.1721 -5.00122 -5.95206 1.31022 -2.671
lowerback 8.27965 0.0828603 0.022746
upperback 0.96026 0.257472 3.66465
thorax -3.66692 0.152092 3.76741
lowerneck -19.2675 -5.20238 -16.085
upperneck 20.962 -4.91251 10.2443
head 10.5906 -2.36916 5.65871
rclavicle 2.77367e-015 -1.59028e-014
rhumerus -50.7926 -8.9354 -75.0792
rradius 37.2002
rwrist -8.77291
rhand -26.8331 10.5007
rfingers 7.12502
rthumb -0.258846 -19.4789
lclavicle 2.77367e-015 -1.59028e-014
lhumerus -49.4039 17.0685 77.539
lradius 33.4497
lwrist 5.63685
lhand -13.1203 31.9113
lfingers 7.12502
lthumb 12.9773 61.4877
rfemur 1.56931 -1.5553 22.5057
rtibia 22.2023
rfoot -13.8253 -5.75388
rtoes -11.3986
lfemur 4.41753 -0.940837 -16.3698
ltibia 19.3232
lfoot -14.021 -1.07639
ltoes -14.0085
339
root 0.448666 18.1724 -5.01077 -5.97343 1.28051 -2.90064
lowerback 8.33636 0.0618061 0.183342
upperback 0.985342 0.24686 3.72449
thorax -3.67154 0.144703 3.74045
lowerneck -19.2485 -5.19363 -16.0238
upperneck 20.9111 -4.92103 10.2492
head 10.5678 -2.36687 5.64722
rclavicle -4.12789e-015 -7.95139e-015
rhumerus -50.4585 -8.53956 -75.6438
rradius 38.0854
rwrist -9.17107
rhand -26.8995 10.121
rfingers 7.12502
rthumb -0.323057 -19.8585
lclavicle -4.12789e-015 -7.95139e-015
lhumerus -48.4792 17.8348 77.2532
lradius 32.5761
lwrist 4.88287
lhand -13.5189 30.4447
lfingers 7.12502
lthumb 12.593 60.0452
rfemur 1.58438 -1.2614 22.8756
rtibia 22.122
rfoot -13.7343 -6.05585
rtoes -11.1939
lfemur 4.33212 -0.901878 -16.0474
ltibia 19.4338
lfoot -13.9974 -1.04414
ltoes -13.5889
340
root 0.443009 18.1731 -5.02378 -5.96512 1.3129 -3.15126
lowerback 8.40542 0.0303378 0.399354
upperback 1.01294 0.228022 3.78671
thorax -3.67976 0.132477 3.68562
lowerneck -19.2469 -5.23718 -15.9997
upperneck 20.8128 -4.97947 10.2275
head 10.5395 -2.392 5.62234
rclavicle 7.40473e-015 -3.49861e-014
rhumerus -50.024 -8.26751 -76.1002
rradius 38.745
rwrist -9.47508
rhand -26.9158 9.94841
rfingers 7.12502
rthumb -0.33877 -20.0311
lclavicle 7.40473e-015 -3.49861e-014
lhumerus -48.3806 16.7286 78.2925
lradius 34.2383
lwrist 6.22842
lhand -13.9368 31.6259
lfingers 7.12502
lthumb 12.19 61.2507
rfemur 1.56072 -1.07116 23.2442
rtibia 22.0333
rfoot -13.5794 -6.32422
rtoes -11.6264
lfemur 4.1946 -0.837591 -15.6972
ltibia 19.5519
lfoot -13.9477 -1.04971
ltoes -13.3348
341
root 0.441455 18.1761 -5.03738 -5.90312 1.49675 -3.20469
lowerback 8.61463 -0.0348834 0.436563
upperback 0.889682 0.155405 3.80445
thorax -3.92049 0.0987308 3.69486
lowerneck -19.2829 -5.27948 -16.0212
upperneck 20.9017 -5.03343 10.2349
head 10.5878 -2.41883 5.62327
rclavicle 1.03368e-014 -4.13472e-014
rhumerus -50.0349 -7.82193 -76.544
rradius 39.9004
rwrist -9.8021
rhand -26.757 9.44348
rfingers 7.12502
rthumb -0.185426 -20.5362
lclavicle 1.03368e-014 -4.13472e-014
lhumerus -48.2584 16.1379 78.919
lradius 35.2783
lwrist 6.88372
lhand -14.1025 33.0742
lfingers 7.12502
lthumb 12.0303 62.7084
rfemur 1.50729 -1.13527 23.3105
rtibia 21.958
rfoot -13.4829 -6.40808
rtoes -11.9246
lfemur 4.01286 -0.841296 -15.6088
ltibia 19.645
lfoot -13.9178 -1.17781
ltoes -13.5491
342
root 0.444538 18.1791 -5.04404 -5.781 1.75446 -3.10116
lowerback 8.66033 -0.120274 0.344518
upperback 0.763645 0.0371335 3.77175
thorax -4.07006 0.0434429 3.7289
lowerneck -19.2666 -5.31835 -16.1017
upperneck 20.9451 -5.10243 10.3656
head 10.6171 -2.44358 5.67739
rclavicle 4.5969e-015 -8.74653e-015
rhumerus -50.1871 -7.32704 -77.0261
rradius 41.3071
rwrist -10.2187
rhand -26.6392 9.1464
rfingers 7.12502
rthumb -0.0716271 -20.8333
lclavicle 4.5969e-015 -8.74653e-015
lhumerus -47.977 15.7483 79.3763
lradius 35.8647
lwrist 7.21226
lhand -14.372 33.1996
lfingers 7.12502
lthumb 11.7704 62.8488
rfemur 1.40445 -1.36253 23.1417
rtibia 21.8965
rfoot -13.4681 -6.36291
rtoes -11.7847
lfemur 3.79314 -0.951173 -15.7542
ltibia 19.7014
lfoot -13.8706 -1.23231
ltoes -13.731
343
root 0.445749 18.1806 -5.04577 -5.70998 1.96832 -3.05691
lowerback 8.5231 -0.182523 0.320777
upperback 0.814078 -0.0546013 3.74066
thorax -3.93493 -0.00347424 3.71826
lowerneck -19.2566 -5.40441 -16.2099
upperneck 20.7922 -5.23116 10.5519
head 10.588 -2.48713 5.74111
rclavicle 5.66847e-015 -3.65764e-014
rhumerus -49.8592 -7.14233 -77.4243
rradius 42.1497
rwrist -10.5806
rhand -26.696 8.84908
rfingers 7.12502
rthumb -0.126478 -21.1306
lclavicle 5.66847e-015 -3.65764e-014
lhumerus -47.3527 15.3584 79.8716
lradius 36.227
lwrist 7.49998
lhand -15.2763 32.1366
lfingers 7.12502
lthumb 10.8983 61.8337
rfemur 1.35777 -1.48136 23.078
rtibia 21.8429
rfoot -13.4583 -6.43226
rtoes -11.708
lfemur 3.64407 -1.03926 -15.8191
ltibia 19.7226
lfoot -13.8379 -1.30853
ltoes -13.7425
